<svg id="visual" viewBox="0 0 600 900" width="600" height="900" xmlns="http://www.w3.org/2000/svg" xmlns:xlink="http://www.w3.org/1999/xlink" version="1.1"><g stroke-width="1" stroke-linejoin="bevel"><path d="M226 476L152 517L244 536Z" fill="#42586b" stroke="#42586b"></path><path d="M0 366L94 534L152 517Z" fill="#75d1ff" stroke="#75d1ff"></path><path d="M152 517L176 731L244 536Z" fill="#4f718b" stroke="#4f718b"></path><path d="M94 534L176 731L152 517Z" fill="#70c3ee" stroke="#70c3ee"></path><path d="M94 534L0 607L176 731Z" fill="#4f718b" stroke="#4f718b"></path><path d="M244 536L375 359L226 476Z" fill="#66a6cc" stroke="#66a6cc"></path><path d="M226 476L0 366L152 517Z" fill="#75d1ff" stroke="#75d1ff"></path><path d="M488 645L375 359L244 536Z" fill="#42586b" stroke="#42586b"></path><path d="M149 252L0 366L226 476Z" fill="#42586b" stroke="#42586b"></path><path d="M94 534L0 366L0 607Z" fill="#557e9b" stroke="#557e9b"></path><path d="M375 359L149 252L226 476Z" fill="#6bb4dd" stroke="#6bb4dd"></path><path d="M0 607L0 724L176 731Z" fill="#66a6cc" stroke="#66a6cc"></path><path d="M320 829L488 645L244 536Z" fill="#6198bb" stroke="#6198bb"></path><path d="M521 372L358 224L375 359Z" fill="#70c3ee" stroke="#70c3ee"></path><path d="M375 359L358 224L149 252Z" fill="#70c3ee" stroke="#70c3ee"></path><path d="M50 900L320 829L176 731Z" fill="#3b4c5c" stroke="#3b4c5c"></path><path d="M176 731L320 829L244 536Z" fill="#75d1ff" stroke="#75d1ff"></path><path d="M488 645L519 398L375 359Z" fill="#70c3ee" stroke="#70c3ee"></path><path d="M220 139L160 176L149 252Z" fill="#5b8bab" stroke="#5b8bab"></path><path d="M149 252L0 229L0 366Z" fill="#557e9b" stroke="#557e9b"></path><path d="M160 176L0 229L149 252Z" fill="#6198bb" stroke="#6198bb"></path><path d="M519 398L521 372L375 359Z" fill="#49647b" stroke="#49647b"></path><path d="M358 224L220 139L149 252Z" fill="#70c3ee" stroke="#70c3ee"></path><path d="M160 176L0 173L0 229Z" fill="#6bb4dd" stroke="#6bb4dd"></path><path d="M77 0L0 173L160 176Z" fill="#42586b" stroke="#42586b"></path><path d="M488 645L600 457L519 398Z" fill="#6bb4dd" stroke="#6bb4dd"></path><path d="M519 398L600 338L521 372Z" fill="#4f718b" stroke="#4f718b"></path><path d="M320 829L482 812L488 645Z" fill="#75d1ff" stroke="#75d1ff"></path><path d="M488 645L600 638L600 457Z" fill="#49647b" stroke="#49647b"></path><path d="M0 724L50 900L176 731Z" fill="#66a6cc" stroke="#66a6cc"></path><path d="M320 829L374 900L482 812Z" fill="#66a6cc" stroke="#66a6cc"></path><path d="M50 900L359 900L320 829Z" fill="#42586b" stroke="#42586b"></path><path d="M482 812L600 638L488 645Z" fill="#42586b" stroke="#42586b"></path><path d="M359 900L374 900L320 829Z" fill="#70c3ee" stroke="#70c3ee"></path><path d="M0 724L0 900L50 900Z" fill="#49647b" stroke="#49647b"></path><path d="M600 457L600 338L519 398Z" fill="#6bb4dd" stroke="#6bb4dd"></path><path d="M521 372L600 338L358 224Z" fill="#4f718b" stroke="#4f718b"></path><path d="M358 224L228 0L220 139Z" fill="#6bb4dd" stroke="#6bb4dd"></path><path d="M600 900L600 835L482 812Z" fill="#49647b" stroke="#49647b"></path><path d="M482 812L600 835L600 638Z" fill="#4f718b" stroke="#4f718b"></path><path d="M488 0L228 0L358 224Z" fill="#557e9b" stroke="#557e9b"></path><path d="M220 139L77 0L160 176Z" fill="#4f718b" stroke="#4f718b"></path><path d="M228 0L77 0L220 139Z" fill="#6198bb" stroke="#6198bb"></path><path d="M77 0L0 0L0 173Z" fill="#6bb4dd" stroke="#6bb4dd"></path><path d="M374 900L600 900L482 812Z" fill="#4f718b" stroke="#4f718b"></path><path d="M600 338L600 109L358 224Z" fill="#49647b" stroke="#49647b"></path><path d="M600 109L488 0L358 224Z" fill="#4f718b" stroke="#4f718b"></path><path d="M600 109L600 0L488 0Z" fill="#557e9b" stroke="#557e9b"></path></g></svg>